<?xml version="1.0" encoding="UTF-8" standalone="no"?>
<svg
   xmlns:dc="http://purl.org/dc/elements/1.1/"
   xmlns:cc="http://creativecommons.org/ns#"
   xmlns:rdf="http://www.w3.org/1999/02/22-rdf-syntax-ns#"
   xmlns:svg="http://www.w3.org/2000/svg"
   xmlns="http://www.w3.org/2000/svg"
   xmlns:sodipodi="http://sodipodi.sourceforge.net/DTD/sodipodi-0.dtd"
   xmlns:inkscape="http://www.inkscape.org/namespaces/inkscape"
   fill="#000000"
   height="24"
   viewBox="0 0 24 24"
   width="24"
   version="1.1"
   id="svg6"
   sodipodi:docname="lightning.svg"
   inkscape:export-filename="D:\dev\qt\lightning-timer\ic_timer_black_24px.png"
   inkscape:export-xdpi="288"
   inkscape:export-ydpi="288"
   inkscape:version="0.92.2 (5c3e80d, 2017-08-06)">
  <metadata
     id="metadata12">
    <rdf:RDF>
      <cc:Work
         rdf:about="">
        <dc:format>image/svg+xml</dc:format>
        <dc:type
           rdf:resource="http://purl.org/dc/dcmitype/StillImage" />
        <dc:title></dc:title>
      </cc:Work>
    </rdf:RDF>
  </metadata>
  <defs
     id="defs10" />
  <sodipodi:namedview
     pagecolor="#ffffff"
     bordercolor="#666666"
     borderopacity="1"
     objecttolerance="10"
     gridtolerance="10"
     guidetolerance="10"
     inkscape:pageopacity="0"
     inkscape:pageshadow="2"
     inkscape:window-width="1490"
     inkscape:window-height="1113"
     id="namedview8"
     showgrid="false"
     inkscape:zoom="13.906433"
     inkscape:cx="12.446786"
     inkscape:cy="18.378234"
     inkscape:window-x="368"
     inkscape:window-y="27"
     inkscape:window-maximized="0"
     inkscape:current-layer="svg6" />
  <ellipse
     id="path3703"
     cx="11.757149"
     cy="12.997898"
     rx="8.0178719"
     ry="7.9819174"
     style="fill:#ffeeaa" />
  <path
     d="M0 0h24v24H0z"
     fill="none"
     id="path2" />
  <path
     d="M 15,1 H 9 v 2 h 6 z m -3.280908,10.842725 -1.455499,1.201082 1.958088,5.123303 0.05923,-4.886202 1.967753,-1.29808 L 14.72582,7.7842725 10.568545,7.568545 Z M 19.03,7.39 20.45,5.97 C 20.02,5.46 19.55,4.98 19.04,4.56 L 17.62,5.98 C 16.07,4.74 14.12,4 12,4 7.03,4 3,8.03 3,13 c 0,4.97 4.02,9 9,9 4.98,0 9,-4.03 9,-9 0,-2.12 -0.74,-4.07 -1.97,-5.61 z M 12,20 C 8.13,20 5,16.87 5,13 5,9.13 8.13,6 12,6 c 3.87,0 7,3.13 7,7 0,3.87 -3.13,7 -7,7 z"
     id="path4"
     inkscape:connector-curvature="0"
     sodipodi:nodetypes="cccccccccccccccccsssscsssss" />
</svg>
